<svg xmlns="http://www.w3.org/2000/svg" id="prefig-jim-a-figure" width="180" height="180" viewBox="0 0 180 180">
  <defs>
    <clipPath id="prefig-jim-a-clipPath-0">
      <rect x="15.0" y="15.0" width="150.0" height="150.0"/>
    </clipPath>
    <clipPath id="prefig-jim-a-clipPath-1">
      <rect x="15.0" y="15.0" width="150.0" height="150.0"/>
    </clipPath>
  </defs>
  <g id="prefig-jim-a-grid-axes">
    <g id="prefig-jim-a-grid" stroke="#ccc" stroke-width="1">
      <line x1="18.7" y1="165.0" x2="18.7" y2="15.0"/>
      <line x1="37.0" y1="165.0" x2="37.0" y2="15.0"/>
      <line x1="55.2" y1="165.0" x2="55.2" y2="15.0"/>
      <line x1="73.5" y1="165.0" x2="73.5" y2="15.0"/>
      <line x1="91.8" y1="165.0" x2="91.8" y2="15.0"/>
      <line x1="110.1" y1="165.0" x2="110.1" y2="15.0"/>
      <line x1="128.4" y1="165.0" x2="128.4" y2="15.0"/>
      <line x1="146.7" y1="165.0" x2="146.7" y2="15.0"/>
      <line x1="165.0" y1="165.0" x2="165.0" y2="15.0"/>
      <line x1="15.0" y1="161.3" x2="165.0" y2="161.3"/>
      <line x1="15.0" y1="143.0" x2="165.0" y2="143.0"/>
      <line x1="15.0" y1="124.8" x2="165.0" y2="124.8"/>
      <line x1="15.0" y1="106.5" x2="165.0" y2="106.5"/>
      <line x1="15.0" y1="88.2" x2="165.0" y2="88.2"/>
      <line x1="15.0" y1="69.9" x2="165.0" y2="69.9"/>
      <line x1="15.0" y1="51.6" x2="165.0" y2="51.6"/>
      <line x1="15.0" y1="33.3" x2="165.0" y2="33.3"/>
      <line x1="15.0" y1="15.0" x2="165.0" y2="15.0"/>
    </g>
    <g id="prefig-jim-a-axes" stroke="black" stroke-width="2">
      <line id="prefig-jim-a-line-18" x1="15.0" y1="161.3" x2="165.0" y2="161.3" stroke="black" stroke-width="2"/>
      <g>
        <line id="prefig-jim-a-line-19" x1="55.2" y1="164.3" x2="55.2" y2="158.3"/>
        <line id="prefig-jim-a-line-20" x1="91.8" y1="164.3" x2="91.8" y2="158.3"/>
        <line id="prefig-jim-a-line-21" x1="128.4" y1="164.3" x2="128.4" y2="158.3"/>
      </g>
      <line id="prefig-jim-a-line-22" x1="18.7" y1="165.0" x2="18.7" y2="15.0" stroke="black" stroke-width="2"/>
      <g>
        <line id="prefig-jim-a-line-23" x1="15.7" y1="124.8" x2="21.7" y2="124.8"/>
        <line id="prefig-jim-a-line-24" x1="15.7" y1="88.2" x2="21.7" y2="88.2"/>
        <line id="prefig-jim-a-line-25" x1="15.7" y1="51.6" x2="21.7" y2="51.6"/>
      </g>
    </g>
    <g id="prefig-jim-a-label-0" transform="translate(161.0,157.3) translate(-43.3,-12.5)">
      <g id="prefig-jim-a-g-0">
        <svg xmlns:xlink="http://www.w3.org/1999/xlink" style="vertical-align: -0.200px" width="43.312px" height="12.456px" role="img" focusable="false" viewBox="0 -677 2393 688" x="0.0" y="0.0">
          <defs>
            <path id="prefig-jim-a-MJX-2-TEX-I-1D447" d="M40 437Q21 437 21 445Q21 450 37 501T71 602L88 651Q93 669 101 677H569H659Q691 677 697 676T704 667Q704 661 687 553T668 444Q668 437 649 437Q640 437 637 437T631 442L629 445Q629 451 635 490T641 551Q641 586 628 604T573 629Q568 630 515 631Q469 631 457 630T439 622Q438 621 368 343T298 60Q298 48 386 46Q418 46 427 45T436 36Q436 31 433 22Q429 4 424 1L422 0Q419 0 415 0Q410 0 363 1T228 2Q99 2 64 0H49Q43 6 43 9T45 27Q49 40 55 46H83H94Q174 46 189 55Q190 56 191 56Q196 59 201 76T241 233Q258 301 269 344Q339 619 339 625Q339 630 310 630H279Q212 630 191 624Q146 614 121 583T67 467Q60 445 57 441T43 437H40Z"/>
            <path id="prefig-jim-a-MJX-2-TEX-N-2062" d=""/>
            <path id="prefig-jim-a-MJX-2-TEX-I-1D456" d="M184 600Q184 624 203 642T247 661Q265 661 277 649T290 619Q290 596 270 577T226 557Q211 557 198 567T184 600ZM21 287Q21 295 30 318T54 369T98 420T158 442Q197 442 223 419T250 357Q250 340 236 301T196 196T154 83Q149 61 149 51Q149 26 166 26Q175 26 185 29T208 43T235 78T260 137Q263 149 265 151T282 153Q302 153 302 143Q302 135 293 112T268 61T223 11T161 -11Q129 -11 102 10T74 74Q74 91 79 106T122 220Q160 321 166 341T173 380Q173 404 156 404H154Q124 404 99 371T61 287Q60 286 59 284T58 281T56 279T53 278T49 278T41 278H27Q21 284 21 287Z"/>
            <path id="prefig-jim-a-MJX-2-TEX-I-1D45A" d="M21 287Q22 293 24 303T36 341T56 388T88 425T132 442T175 435T205 417T221 395T229 376L231 369Q231 367 232 367L243 378Q303 442 384 442Q401 442 415 440T441 433T460 423T475 411T485 398T493 385T497 373T500 364T502 357L510 367Q573 442 659 442Q713 442 746 415T780 336Q780 285 742 178T704 50Q705 36 709 31T724 26Q752 26 776 56T815 138Q818 149 821 151T837 153Q857 153 857 145Q857 144 853 130Q845 101 831 73T785 17T716 -10Q669 -10 648 17T627 73Q627 92 663 193T700 345Q700 404 656 404H651Q565 404 506 303L499 291L466 157Q433 26 428 16Q415 -11 385 -11Q372 -11 364 -4T353 8T350 18Q350 29 384 161L420 307Q423 322 423 345Q423 404 379 404H374Q288 404 229 303L222 291L189 157Q156 26 151 16Q138 -11 108 -11Q95 -11 87 -5T76 7T74 17Q74 30 112 181Q151 335 151 342Q154 357 154 369Q154 405 129 405Q107 405 92 377T69 316T57 280Q55 278 41 278H27Q21 284 21 287Z"/>
            <path id="prefig-jim-a-MJX-2-TEX-I-1D452" d="M39 168Q39 225 58 272T107 350T174 402T244 433T307 442H310Q355 442 388 420T421 355Q421 265 310 237Q261 224 176 223Q139 223 138 221Q138 219 132 186T125 128Q125 81 146 54T209 26T302 45T394 111Q403 121 406 121Q410 121 419 112T429 98T420 82T390 55T344 24T281 -1T205 -11Q126 -11 83 42T39 168ZM373 353Q367 405 305 405Q272 405 244 391T199 357T170 316T154 280T149 261Q149 260 169 260Q282 260 327 284T373 353Z"/>
          </defs>
          <g stroke="currentColor" fill="currentColor" stroke-width="0" transform="scale(1,-1)">
            <g data-mml-node="math" data-semantic-type="infixop" data-semantic-role="implicit" data-semantic-annotation="clearspeak:unit" data-semantic-id="7" data-semantic-children="0,1,2,3" data-semantic-content="4,5,6" data-semantic-speech="upper T i m e">
              <g data-mml-node="mi" data-semantic-type="identifier" data-semantic-role="latinletter" data-semantic-font="italic" data-semantic-annotation="clearspeak:simple" data-semantic-id="0" data-semantic-parent="7" data-semantic-speech="upper T">
                <use data-c="1D447" xlink:href="#prefig-jim-a-MJX-2-TEX-I-1D447"/>
              </g>
              <g data-mml-node="mo" data-semantic-type="operator" data-semantic-role="multiplication" data-semantic-id="4" data-semantic-parent="7" data-semantic-added="true" data-semantic-operator="infixop,⁢" data-semantic-speech="times" transform="translate(704,0)">
                <use data-c="2062" xlink:href="#prefig-jim-a-MJX-2-TEX-N-2062"/>
              </g>
              <g data-mml-node="mi" data-semantic-type="identifier" data-semantic-role="latinletter" data-semantic-font="italic" data-semantic-annotation="clearspeak:simple" data-semantic-id="1" data-semantic-parent="7" data-semantic-speech="i" transform="translate(704,0)">
                <use data-c="1D456" xlink:href="#prefig-jim-a-MJX-2-TEX-I-1D456"/>
              </g>
              <g data-mml-node="mo" data-semantic-type="operator" data-semantic-role="multiplication" data-semantic-id="5" data-semantic-parent="7" data-semantic-added="true" data-semantic-operator="infixop,⁢" data-semantic-speech="times" transform="translate(1049,0)">
                <use data-c="2062" xlink:href="#prefig-jim-a-MJX-2-TEX-N-2062"/>
              </g>
              <g data-mml-node="mi" data-semantic-type="identifier" data-semantic-role="latinletter" data-semantic-font="italic" data-semantic-annotation="clearspeak:simple" data-semantic-id="2" data-semantic-parent="7" data-semantic-speech="m" transform="translate(1049,0)">
                <use data-c="1D45A" xlink:href="#prefig-jim-a-MJX-2-TEX-I-1D45A"/>
              </g>
              <g data-mml-node="mo" data-semantic-type="operator" data-semantic-role="multiplication" data-semantic-id="6" data-semantic-parent="7" data-semantic-added="true" data-semantic-operator="infixop,⁢" data-semantic-speech="times" transform="translate(1927,0)">
                <use data-c="2062" xlink:href="#prefig-jim-a-MJX-2-TEX-N-2062"/>
              </g>
              <g data-mml-node="mi" data-semantic-type="identifier" data-semantic-role="latinletter" data-semantic-font="italic" data-semantic-annotation="clearspeak:simple" data-semantic-id="3" data-semantic-parent="7" data-semantic-speech="e" transform="translate(1927,0)">
                <use data-c="1D452" xlink:href="#prefig-jim-a-MJX-2-TEX-I-1D452"/>
              </g>
            </g>
          </g>
        </svg>
      </g>
    </g>
    <g id="prefig-jim-a-label-1" transform="translate(22.7,19.0) translate(0.0,-0.0)">
      <g id="prefig-jim-a-g-1">
        <svg xmlns:xlink="http://www.w3.org/1999/xlink" style="vertical-align: -0.200px" width="36.256px" height="12.560px" role="img" focusable="false" viewBox="0 -683 2003 694" x="0.0" y="0.0">
          <defs>
            <path id="prefig-jim-a-MJX-3-TEX-I-1D437" d="M287 628Q287 635 230 637Q207 637 200 638T193 647Q193 655 197 667T204 682Q206 683 403 683Q570 682 590 682T630 676Q702 659 752 597T803 431Q803 275 696 151T444 3L430 1L236 0H125H72Q48 0 41 2T33 11Q33 13 36 25Q40 41 44 43T67 46Q94 46 127 49Q141 52 146 61Q149 65 218 339T287 628ZM703 469Q703 507 692 537T666 584T629 613T590 629T555 636Q553 636 541 636T512 636T479 637H436Q392 637 386 627Q384 623 313 339T242 52Q242 48 253 48T330 47Q335 47 349 47T373 46Q499 46 581 128Q617 164 640 212T683 339T703 469Z"/>
            <path id="prefig-jim-a-MJX-3-TEX-N-2062" d=""/>
            <path id="prefig-jim-a-MJX-3-TEX-I-1D456" d="M184 600Q184 624 203 642T247 661Q265 661 277 649T290 619Q290 596 270 577T226 557Q211 557 198 567T184 600ZM21 287Q21 295 30 318T54 369T98 420T158 442Q197 442 223 419T250 357Q250 340 236 301T196 196T154 83Q149 61 149 51Q149 26 166 26Q175 26 185 29T208 43T235 78T260 137Q263 149 265 151T282 153Q302 153 302 143Q302 135 293 112T268 61T223 11T161 -11Q129 -11 102 10T74 74Q74 91 79 106T122 220Q160 321 166 341T173 380Q173 404 156 404H154Q124 404 99 371T61 287Q60 286 59 284T58 281T56 279T53 278T49 278T41 278H27Q21 284 21 287Z"/>
            <path id="prefig-jim-a-MJX-3-TEX-I-1D460" d="M131 289Q131 321 147 354T203 415T300 442Q362 442 390 415T419 355Q419 323 402 308T364 292Q351 292 340 300T328 326Q328 342 337 354T354 372T367 378Q368 378 368 379Q368 382 361 388T336 399T297 405Q249 405 227 379T204 326Q204 301 223 291T278 274T330 259Q396 230 396 163Q396 135 385 107T352 51T289 7T195 -10Q118 -10 86 19T53 87Q53 126 74 143T118 160Q133 160 146 151T160 120Q160 94 142 76T111 58Q109 57 108 57T107 55Q108 52 115 47T146 34T201 27Q237 27 263 38T301 66T318 97T323 122Q323 150 302 164T254 181T195 196T148 231Q131 256 131 289Z"/>
            <path id="prefig-jim-a-MJX-3-TEX-I-1D461" d="M26 385Q19 392 19 395Q19 399 22 411T27 425Q29 430 36 430T87 431H140L159 511Q162 522 166 540T173 566T179 586T187 603T197 615T211 624T229 626Q247 625 254 615T261 596Q261 589 252 549T232 470L222 433Q222 431 272 431H323Q330 424 330 420Q330 398 317 385H210L174 240Q135 80 135 68Q135 26 162 26Q197 26 230 60T283 144Q285 150 288 151T303 153H307Q322 153 322 145Q322 142 319 133Q314 117 301 95T267 48T216 6T155 -11Q125 -11 98 4T59 56Q57 64 57 83V101L92 241Q127 382 128 383Q128 385 77 385H26Z"/>
          </defs>
          <g stroke="currentColor" fill="currentColor" stroke-width="0" transform="scale(1,-1)">
            <g data-mml-node="math" data-semantic-type="infixop" data-semantic-role="implicit" data-semantic-annotation="clearspeak:unit" data-semantic-id="7" data-semantic-children="0,1,2,3" data-semantic-content="4,5,6" data-semantic-speech="upper D i s t">
              <g data-mml-node="mi" data-semantic-type="identifier" data-semantic-role="latinletter" data-semantic-font="italic" data-semantic-annotation="clearspeak:simple" data-semantic-id="0" data-semantic-parent="7" data-semantic-speech="upper D">
                <use data-c="1D437" xlink:href="#prefig-jim-a-MJX-3-TEX-I-1D437"/>
              </g>
              <g data-mml-node="mo" data-semantic-type="operator" data-semantic-role="multiplication" data-semantic-id="4" data-semantic-parent="7" data-semantic-added="true" data-semantic-operator="infixop,⁢" data-semantic-speech="times" transform="translate(828,0)">
                <use data-c="2062" xlink:href="#prefig-jim-a-MJX-3-TEX-N-2062"/>
              </g>
              <g data-mml-node="mi" data-semantic-type="identifier" data-semantic-role="latinletter" data-semantic-font="italic" data-semantic-annotation="clearspeak:simple" data-semantic-id="1" data-semantic-parent="7" data-semantic-speech="i" transform="translate(828,0)">
                <use data-c="1D456" xlink:href="#prefig-jim-a-MJX-3-TEX-I-1D456"/>
              </g>
              <g data-mml-node="mo" data-semantic-type="operator" data-semantic-role="multiplication" data-semantic-id="5" data-semantic-parent="7" data-semantic-added="true" data-semantic-operator="infixop,⁢" data-semantic-speech="times" transform="translate(1173,0)">
                <use data-c="2062" xlink:href="#prefig-jim-a-MJX-3-TEX-N-2062"/>
              </g>
              <g data-mml-node="mi" data-semantic-type="identifier" data-semantic-role="latinletter" data-semantic-font="italic" data-semantic-annotation="clearspeak:simple" data-semantic-id="2" data-semantic-parent="7" data-semantic-speech="s" transform="translate(1173,0)">
                <use data-c="1D460" xlink:href="#prefig-jim-a-MJX-3-TEX-I-1D460"/>
              </g>
              <g data-mml-node="mo" data-semantic-type="operator" data-semantic-role="multiplication" data-semantic-id="6" data-semantic-parent="7" data-semantic-added="true" data-semantic-operator="infixop,⁢" data-semantic-speech="times" transform="translate(1642,0)">
                <use data-c="2062" xlink:href="#prefig-jim-a-MJX-3-TEX-N-2062"/>
              </g>
              <g data-mml-node="mi" data-semantic-type="identifier" data-semantic-role="latinletter" data-semantic-font="italic" data-semantic-annotation="clearspeak:simple" data-semantic-id="3" data-semantic-parent="7" data-semantic-speech="t" transform="translate(1642,0)">
                <use data-c="1D461" xlink:href="#prefig-jim-a-MJX-3-TEX-I-1D461"/>
              </g>
            </g>
          </g>
        </svg>
      </g>
    </g>
    <g id="prefig-jim-a-label-2" transform="translate(55.2,172.3) translate(-4.5,-0.0)">
      <g id="prefig-jim-a-g-2">
        <svg xmlns:xlink="http://www.w3.org/1999/xlink" style="vertical-align: 0.000px" width="9.048px" height="12.056px" role="img" focusable="false" viewBox="0 -666 500 666" x="0.0" y="0.0">
          <defs>
            <path id="prefig-jim-a-MJX-4-TEX-N-31" d="M213 578L200 573Q186 568 160 563T102 556H83V602H102Q149 604 189 617T245 641T273 663Q275 666 285 666Q294 666 302 660V361L303 61Q310 54 315 52T339 48T401 46H427V0H416Q395 3 257 3Q121 3 100 0H88V46H114Q136 46 152 46T177 47T193 50T201 52T207 57T213 61V578Z"/>
          </defs>
          <g stroke="currentColor" fill="currentColor" stroke-width="0" transform="scale(1,-1)">
            <g data-mml-node="math">
              <g data-mml-node="mtext" data-semantic-type="text" data-semantic-role="integer" data-semantic-font="normal" data-semantic-annotation="clearspeak:unit" data-semantic-id="0" data-semantic-speech="1">
                <use data-c="31" xlink:href="#prefig-jim-a-MJX-4-TEX-N-31"/>
              </g>
            </g>
          </g>
        </svg>
      </g>
    </g>
    <g id="prefig-jim-a-label-3" transform="translate(91.8,172.3) translate(-4.5,-0.0)">
      <g id="prefig-jim-a-g-3">
        <svg xmlns:xlink="http://www.w3.org/1999/xlink" style="vertical-align: 0.000px" width="9.048px" height="12.056px" role="img" focusable="false" viewBox="0 -666 500 666" x="0.0" y="0.0">
          <defs>
            <path id="prefig-jim-a-MJX-5-TEX-N-32" d="M109 429Q82 429 66 447T50 491Q50 562 103 614T235 666Q326 666 387 610T449 465Q449 422 429 383T381 315T301 241Q265 210 201 149L142 93L218 92Q375 92 385 97Q392 99 409 186V189H449V186Q448 183 436 95T421 3V0H50V19V31Q50 38 56 46T86 81Q115 113 136 137Q145 147 170 174T204 211T233 244T261 278T284 308T305 340T320 369T333 401T340 431T343 464Q343 527 309 573T212 619Q179 619 154 602T119 569T109 550Q109 549 114 549Q132 549 151 535T170 489Q170 464 154 447T109 429Z"/>
          </defs>
          <g stroke="currentColor" fill="currentColor" stroke-width="0" transform="scale(1,-1)">
            <g data-mml-node="math">
              <g data-mml-node="mtext" data-semantic-type="text" data-semantic-role="integer" data-semantic-font="normal" data-semantic-annotation="clearspeak:unit" data-semantic-id="0" data-semantic-speech="2">
                <use data-c="32" xlink:href="#prefig-jim-a-MJX-5-TEX-N-32"/>
              </g>
            </g>
          </g>
        </svg>
      </g>
    </g>
    <g id="prefig-jim-a-label-4" transform="translate(128.4,172.3) translate(-4.5,-0.0)">
      <g id="prefig-jim-a-g-4">
        <svg xmlns:xlink="http://www.w3.org/1999/xlink" style="vertical-align: -0.400px" width="9.048px" height="12.432px" role="img" focusable="false" viewBox="0 -665 500 687" x="0.0" y="0.0">
          <defs>
            <path id="prefig-jim-a-MJX-6-TEX-N-33" d="M127 463Q100 463 85 480T69 524Q69 579 117 622T233 665Q268 665 277 664Q351 652 390 611T430 522Q430 470 396 421T302 350L299 348Q299 347 308 345T337 336T375 315Q457 262 457 175Q457 96 395 37T238 -22Q158 -22 100 21T42 130Q42 158 60 175T105 193Q133 193 151 175T169 130Q169 119 166 110T159 94T148 82T136 74T126 70T118 67L114 66Q165 21 238 21Q293 21 321 74Q338 107 338 175V195Q338 290 274 322Q259 328 213 329L171 330L168 332Q166 335 166 348Q166 366 174 366Q202 366 232 371Q266 376 294 413T322 525V533Q322 590 287 612Q265 626 240 626Q208 626 181 615T143 592T132 580H135Q138 579 143 578T153 573T165 566T175 555T183 540T186 520Q186 498 172 481T127 463Z"/>
          </defs>
          <g stroke="currentColor" fill="currentColor" stroke-width="0" transform="scale(1,-1)">
            <g data-mml-node="math">
              <g data-mml-node="mtext" data-semantic-type="text" data-semantic-role="integer" data-semantic-font="normal" data-semantic-annotation="clearspeak:unit" data-semantic-id="0" data-semantic-speech="3">
                <use data-c="33" xlink:href="#prefig-jim-a-MJX-6-TEX-N-33"/>
              </g>
            </g>
          </g>
        </svg>
      </g>
    </g>
    <g id="prefig-jim-a-label-5" transform="translate(7.7,124.8) translate(-9.0,-6.0)">
      <g id="prefig-jim-a-g-5">
        <svg xmlns:xlink="http://www.w3.org/1999/xlink" style="vertical-align: 0.000px" width="9.048px" height="12.056px" role="img" focusable="false" viewBox="0 -666 500 666" x="0.0" y="0.0">
          <defs>
            <path id="prefig-jim-a-MJX-7-TEX-N-31" d="M213 578L200 573Q186 568 160 563T102 556H83V602H102Q149 604 189 617T245 641T273 663Q275 666 285 666Q294 666 302 660V361L303 61Q310 54 315 52T339 48T401 46H427V0H416Q395 3 257 3Q121 3 100 0H88V46H114Q136 46 152 46T177 47T193 50T201 52T207 57T213 61V578Z"/>
          </defs>
          <g stroke="currentColor" fill="currentColor" stroke-width="0" transform="scale(1,-1)">
            <g data-mml-node="math">
              <g data-mml-node="mtext" data-semantic-type="text" data-semantic-role="integer" data-semantic-font="normal" data-semantic-annotation="clearspeak:unit" data-semantic-id="0" data-semantic-speech="1">
                <use data-c="31" xlink:href="#prefig-jim-a-MJX-7-TEX-N-31"/>
              </g>
            </g>
          </g>
        </svg>
      </g>
    </g>
    <g id="prefig-jim-a-label-6" transform="translate(7.7,88.2) translate(-9.0,-6.0)">
      <g id="prefig-jim-a-g-6">
        <svg xmlns:xlink="http://www.w3.org/1999/xlink" style="vertical-align: 0.000px" width="9.048px" height="12.056px" role="img" focusable="false" viewBox="0 -666 500 666" x="0.0" y="0.0">
          <defs>
            <path id="prefig-jim-a-MJX-8-TEX-N-32" d="M109 429Q82 429 66 447T50 491Q50 562 103 614T235 666Q326 666 387 610T449 465Q449 422 429 383T381 315T301 241Q265 210 201 149L142 93L218 92Q375 92 385 97Q392 99 409 186V189H449V186Q448 183 436 95T421 3V0H50V19V31Q50 38 56 46T86 81Q115 113 136 137Q145 147 170 174T204 211T233 244T261 278T284 308T305 340T320 369T333 401T340 431T343 464Q343 527 309 573T212 619Q179 619 154 602T119 569T109 550Q109 549 114 549Q132 549 151 535T170 489Q170 464 154 447T109 429Z"/>
          </defs>
          <g stroke="currentColor" fill="currentColor" stroke-width="0" transform="scale(1,-1)">
            <g data-mml-node="math">
              <g data-mml-node="mtext" data-semantic-type="text" data-semantic-role="integer" data-semantic-font="normal" data-semantic-annotation="clearspeak:unit" data-semantic-id="0" data-semantic-speech="2">
                <use data-c="32" xlink:href="#prefig-jim-a-MJX-8-TEX-N-32"/>
              </g>
            </g>
          </g>
        </svg>
      </g>
    </g>
    <g id="prefig-jim-a-label-7" transform="translate(7.7,51.6) translate(-9.0,-6.2)">
      <g id="prefig-jim-a-g-7">
        <svg xmlns:xlink="http://www.w3.org/1999/xlink" style="vertical-align: -0.400px" width="9.048px" height="12.432px" role="img" focusable="false" viewBox="0 -665 500 687" x="0.0" y="0.0">
          <defs>
            <path id="prefig-jim-a-MJX-9-TEX-N-33" d="M127 463Q100 463 85 480T69 524Q69 579 117 622T233 665Q268 665 277 664Q351 652 390 611T430 522Q430 470 396 421T302 350L299 348Q299 347 308 345T337 336T375 315Q457 262 457 175Q457 96 395 37T238 -22Q158 -22 100 21T42 130Q42 158 60 175T105 193Q133 193 151 175T169 130Q169 119 166 110T159 94T148 82T136 74T126 70T118 67L114 66Q165 21 238 21Q293 21 321 74Q338 107 338 175V195Q338 290 274 322Q259 328 213 329L171 330L168 332Q166 335 166 348Q166 366 174 366Q202 366 232 371Q266 376 294 413T322 525V533Q322 590 287 612Q265 626 240 626Q208 626 181 615T143 592T132 580H135Q138 579 143 578T153 573T165 566T175 555T183 540T186 520Q186 498 172 481T127 463Z"/>
          </defs>
          <g stroke="currentColor" fill="currentColor" stroke-width="0" transform="scale(1,-1)">
            <g data-mml-node="math">
              <g data-mml-node="mtext" data-semantic-type="text" data-semantic-role="integer" data-semantic-font="normal" data-semantic-annotation="clearspeak:unit" data-semantic-id="0" data-semantic-speech="3">
                <use data-c="33" xlink:href="#prefig-jim-a-MJX-9-TEX-N-33"/>
              </g>
            </g>
          </g>
        </svg>
      </g>
    </g>
  </g>
  <path id="prefig-jim-a-graph-0" stroke="blue" stroke-width="1.5" fill="none" d="M 18.7 161.3 L 19.4 160.6 L 20.1 159.9 L 20.9 159.1 L 21.6 158.4 L 22.3 157.7 L 23.0 157.0 L 23.8 156.2 L 24.5 155.5 L 25.2 154.8 L 26.0 154.0 L 26.7 153.3 L 27.4 152.6 L 28.2 151.8 L 28.9 151.1 L 29.6 150.4 L 30.4 149.6 L 31.1 148.9 L 31.8 148.2 L 32.6 147.4 L 33.3 146.7 L 34.0 146.0 L 34.8 145.2 L 35.5 144.5 L 36.2 143.8 L 37.0 143.0 L 37.7 142.3 L 38.4 141.6 L 39.1 140.9 L 39.9 140.1 L 40.6 139.4 L 41.3 138.7 L 42.1 137.9 L 42.8 137.2 L 43.5 136.5 L 44.3 135.7 L 45.0 135.0 L 45.7 134.3 L 46.5 133.5 L 47.2 132.8 L 47.9 132.1 L 48.7 131.3 L 49.4 130.6 L 50.1 129.9 L 50.9 129.1 L 51.6 128.4 L 52.3 127.7 L 53.0 127.0 L 53.8 126.2 L 54.5 125.5 L 55.2 124.8 L 56.0 124.0 L 56.7 123.3 L 57.4 122.6 L 58.2 121.8 L 58.9 121.1 L 59.6 120.4 L 60.4 119.6 L 61.1 118.9 L 61.8 118.2 L 62.6 117.4 L 63.3 116.7 L 64.0 116.0 L 64.8 115.2 L 65.5 114.5 L 66.2 113.8 L 67.0 113.0 L 67.7 112.3 L 68.4 111.6 L 69.1 110.9 L 69.9 110.1 L 70.6 109.4 L 71.3 108.7 L 72.1 107.9 L 72.8 107.2 L 73.5 106.5 L 74.3 105.7 L 75.0 105.0 L 75.7 104.3 L 76.5 103.5 L 77.2 102.8 L 77.9 102.1 L 78.7 101.3 L 79.4 100.6 L 80.1 99.9 L 80.9 99.1 L 81.6 98.4 L 82.3 97.7 L 83.0 97.0 L 83.8 96.2 L 84.5 95.5 L 85.2 94.8 L 86.0 94.0 L 86.7 93.3 L 87.4 92.6 L 88.2 91.8 L 88.9 91.1 L 89.6 90.4 L 90.4 89.6 L 91.1 88.9 L 91.8 88.2" clip-path="url(#prefig-jim-a-clipPath-1)"/>
  <path id="prefig-jim-a-graph-1" stroke="blue" stroke-width="1.5" fill="none" d="M 91.8 88.2 L 92.3 88.2 L 92.8 88.2 L 93.3 88.2 L 93.7 88.2 L 94.2 88.2 L 94.7 88.2 L 95.2 88.2 L 95.6 88.2 L 96.1 88.2 L 96.6 88.2 L 97.1 88.2 L 97.5 88.2 L 98.0 88.2 L 98.5 88.2 L 99.0 88.2 L 99.4 88.2 L 99.9 88.2 L 100.4 88.2 L 100.9 88.2 L 101.3 88.2 L 101.8 88.2 L 102.3 88.2 L 102.8 88.2 L 103.2 88.2 L 103.7 88.2 L 104.2 88.2 L 104.7 88.2 L 105.1 88.2 L 105.6 88.2 L 106.1 88.2 L 106.6 88.2 L 107.0 88.2 L 107.5 88.2 L 108.0 88.2 L 108.5 88.2 L 109.0 88.2 L 109.4 88.2 L 109.9 88.2 L 110.4 88.2 L 110.9 88.2 L 111.3 88.2 L 111.8 88.2 L 112.3 88.2 L 112.8 88.2 L 113.2 88.2 L 113.7 88.2 L 114.2 88.2 L 114.7 88.2 L 115.1 88.2 L 115.6 88.2 L 116.1 88.2 L 116.6 88.2 L 117.0 88.2 L 117.5 88.2 L 118.0 88.2 L 118.5 88.2 L 118.9 88.2 L 119.4 88.2 L 119.9 88.2 L 120.4 88.2 L 120.8 88.2 L 121.3 88.2 L 121.8 88.2 L 122.3 88.2 L 122.7 88.2 L 123.2 88.2 L 123.7 88.2 L 124.2 88.2 L 124.6 88.2 L 125.1 88.2 L 125.6 88.2 L 126.1 88.2 L 126.5 88.2 L 127.0 88.2 L 127.5 88.2 L 128.0 88.2 L 128.5 88.2 L 128.9 88.2 L 129.4 88.2 L 129.9 88.2 L 130.4 88.2 L 130.8 88.2 L 131.3 88.2 L 131.8 88.2 L 132.3 88.2 L 132.7 88.2 L 133.2 88.2 L 133.7 88.2 L 134.2 88.2 L 134.6 88.2 L 135.1 88.2 L 135.6 88.2 L 136.1 88.2 L 136.5 88.2 L 137.0 88.2 L 137.5 88.2 L 138.0 88.2 L 138.4 88.2 L 138.9 88.2 L 139.4 88.2" clip-path="url(#prefig-jim-a-clipPath-1)"/>
  <path id="prefig-jim-a-graph-2" stroke="blue" stroke-width="1.5" fill="none" d="M 139.4 88.2 L 139.6 87.9 L 139.9 87.7 L 140.2 87.4 L 140.4 87.1 L 140.7 86.9 L 140.9 86.6 L 141.2 86.4 L 141.4 86.1 L 141.7 85.9 L 142.0 85.6 L 142.2 85.4 L 142.5 85.1 L 142.7 84.8 L 143.0 84.6 L 143.2 84.3 L 143.5 84.1 L 143.7 83.8 L 144.0 83.6 L 144.3 83.3 L 144.5 83.0 L 144.8 82.8 L 145.0 82.5 L 145.3 82.3 L 145.5 82.0 L 145.8 81.8 L 146.0 81.5 L 146.3 81.3 L 146.6 81.0 L 146.8 80.7 L 147.1 80.5 L 147.3 80.2 L 147.6 80.0 L 147.8 79.7 L 148.1 79.5 L 148.4 79.2 L 148.6 79.0 L 148.9 78.7 L 149.1 78.4 L 149.4 78.2 L 149.6 77.9 L 149.9 77.7 L 150.1 77.4 L 150.4 77.2 L 150.7 76.9 L 150.9 76.6 L 151.2 76.4 L 151.4 76.1 L 151.7 75.9 L 151.9 75.6 L 152.2 75.4 L 152.5 75.1 L 152.7 74.9 L 153.0 74.6 L 153.2 74.3 L 153.5 74.1 L 153.7 73.8 L 154.0 73.6 L 154.2 73.3 L 154.5 73.1 L 154.8 72.8 L 155.0 72.5 L 155.3 72.3 L 155.5 72.0 L 155.8 71.8 L 156.0 71.5 L 156.3 71.3 L 156.5 71.0 L 156.8 70.8 L 157.1 70.5 L 157.3 70.2 L 157.6 70.0 L 157.8 69.7 L 158.1 69.5 L 158.3 69.2 L 158.6 69.0 L 158.9 68.7 L 159.1 68.5 L 159.4 68.2 L 159.6 67.9 L 159.9 67.7 L 160.1 67.4 L 160.4 67.2 L 160.6 66.9 L 160.9 66.7 L 161.2 66.4 L 161.4 66.1 L 161.7 65.9 L 161.9 65.6 L 162.2 65.4 L 162.4 65.1 L 162.7 64.9 L 163.0 64.6 L 163.2 64.4 L 163.5 64.1 L 163.7 63.8 L 164.0 63.6 L 164.2 63.3 L 164.5 63.1 L 164.7 62.8 L 165.0 62.6" clip-path="url(#prefig-jim-a-clipPath-1)"/>
</svg>
