<svg xmlns="http://www.w3.org/2000/svg" id="prefig-blank-grid-quad-3-figure" width="330" height="330" viewBox="0 0 330 330">
  <defs>
    <clipPath id="prefig-blank-grid-quad-3-clipPath-0">
      <rect x="15.0" y="15.0" width="300.0" height="300.0"/>
    </clipPath>
    <clipPath id="prefig-blank-grid-quad-3-clipPath-1">
      <rect x="15.0" y="15.0" width="300.0" height="300.0"/>
    </clipPath>
  </defs>
  <g id="prefig-blank-grid-quad-3-grid-axes">
    <g id="prefig-blank-grid-quad-3-grid" stroke="#ccc" stroke-width="1">
      <line x1="15.0" y1="315.0" x2="15.0" y2="15.0"/>
      <line x1="45.0" y1="315.0" x2="45.0" y2="15.0"/>
      <line x1="75.0" y1="315.0" x2="75.0" y2="15.0"/>
      <line x1="105.0" y1="315.0" x2="105.0" y2="15.0"/>
      <line x1="135.0" y1="315.0" x2="135.0" y2="15.0"/>
      <line x1="165.0" y1="315.0" x2="165.0" y2="15.0"/>
      <line x1="195.0" y1="315.0" x2="195.0" y2="15.0"/>
      <line x1="225.0" y1="315.0" x2="225.0" y2="15.0"/>
      <line x1="255.0" y1="315.0" x2="255.0" y2="15.0"/>
      <line x1="285.0" y1="315.0" x2="285.0" y2="15.0"/>
      <line x1="315.0" y1="315.0" x2="315.0" y2="15.0"/>
      <line x1="15.0" y1="315.0" x2="315.0" y2="315.0"/>
      <line x1="15.0" y1="277.5" x2="315.0" y2="277.5"/>
      <line x1="15.0" y1="240.0" x2="315.0" y2="240.0"/>
      <line x1="15.0" y1="202.5" x2="315.0" y2="202.5"/>
      <line x1="15.0" y1="165.0" x2="315.0" y2="165.0"/>
      <line x1="15.0" y1="127.5" x2="315.0" y2="127.5"/>
      <line x1="15.0" y1="90.0" x2="315.0" y2="90.0"/>
      <line x1="15.0" y1="52.5" x2="315.0" y2="52.5"/>
      <line x1="15.0" y1="15.0" x2="315.0" y2="15.0"/>
    </g>
    <g id="prefig-blank-grid-quad-3-axes" stroke="black" stroke-width="2">
      <line id="prefig-blank-grid-quad-3-line-20" x1="15.0" y1="165.0" x2="315.0" y2="165.0" stroke="black" stroke-width="2"/>
      <g>
        <line id="prefig-blank-grid-quad-3-line-21" x1="45.0" y1="168.0" x2="45.0" y2="162.0"/>
        <line id="prefig-blank-grid-quad-3-line-22" x1="105.0" y1="168.0" x2="105.0" y2="162.0"/>
        <line id="prefig-blank-grid-quad-3-line-23" x1="165.0" y1="168.0" x2="165.0" y2="162.0"/>
        <line id="prefig-blank-grid-quad-3-line-24" x1="285.0" y1="168.0" x2="285.0" y2="162.0"/>
      </g>
      <line id="prefig-blank-grid-quad-3-line-25" x1="225.0" y1="315.0" x2="225.0" y2="15.0" stroke="black" stroke-width="2"/>
      <g>
        <line id="prefig-blank-grid-quad-3-line-26" x1="222.0" y1="240.0" x2="228.0" y2="240.0"/>
        <line id="prefig-blank-grid-quad-3-line-27" x1="222.0" y1="90.0" x2="228.0" y2="90.0"/>
      </g>
    </g>
    <g id="prefig-blank-grid-quad-3-label-0" transform="translate(311.0,161.0) translate(-10.4,-8.2)">
      <g id="prefig-blank-grid-quad-3-g-0">
        <svg xmlns:xlink="http://www.w3.org/1999/xlink" style="vertical-align: -0.200px" width="10.352px" height="8.200px" role="img" focusable="false" viewBox="0 -442 572 453" x="0.0" y="0.0">
          <defs>
            <path id="prefig-blank-grid-quad-3-MJX-2-TEX-I-1D465" d="M52 289Q59 331 106 386T222 442Q257 442 286 424T329 379Q371 442 430 442Q467 442 494 420T522 361Q522 332 508 314T481 292T458 288Q439 288 427 299T415 328Q415 374 465 391Q454 404 425 404Q412 404 406 402Q368 386 350 336Q290 115 290 78Q290 50 306 38T341 26Q378 26 414 59T463 140Q466 150 469 151T485 153H489Q504 153 504 145Q504 144 502 134Q486 77 440 33T333 -11Q263 -11 227 52Q186 -10 133 -10H127Q78 -10 57 16T35 71Q35 103 54 123T99 143Q142 143 142 101Q142 81 130 66T107 46T94 41L91 40Q91 39 97 36T113 29T132 26Q168 26 194 71Q203 87 217 139T245 247T261 313Q266 340 266 352Q266 380 251 392T217 404Q177 404 142 372T93 290Q91 281 88 280T72 278H58Q52 284 52 289Z"/>
          </defs>
          <g stroke="currentColor" fill="currentColor" stroke-width="0" transform="scale(1,-1)">
            <g data-mml-node="math">
              <g data-mml-node="mi" data-semantic-type="identifier" data-semantic-role="latinletter" data-semantic-font="italic" data-semantic-annotation="clearspeak:simple" data-semantic-id="0" data-semantic-speech="x">
                <use data-c="1D465" xlink:href="#prefig-blank-grid-quad-3-MJX-2-TEX-I-1D465"/>
              </g>
            </g>
          </g>
        </svg>
      </g>
    </g>
    <g id="prefig-blank-grid-quad-3-label-1" transform="translate(229.0,19.0) translate(0.0,-0.0)">
      <g id="prefig-blank-grid-quad-3-g-1">
        <svg xmlns:xlink="http://www.w3.org/1999/xlink" style="vertical-align: -3.712px" width="8.872px" height="11.712px" role="img" focusable="false" viewBox="0 -442 490 647" x="0.0" y="0.0">
          <defs>
            <path id="prefig-blank-grid-quad-3-MJX-3-TEX-I-1D466" d="M21 287Q21 301 36 335T84 406T158 442Q199 442 224 419T250 355Q248 336 247 334Q247 331 231 288T198 191T182 105Q182 62 196 45T238 27Q261 27 281 38T312 61T339 94Q339 95 344 114T358 173T377 247Q415 397 419 404Q432 431 462 431Q475 431 483 424T494 412T496 403Q496 390 447 193T391 -23Q363 -106 294 -155T156 -205Q111 -205 77 -183T43 -117Q43 -95 50 -80T69 -58T89 -48T106 -45Q150 -45 150 -87Q150 -107 138 -122T115 -142T102 -147L99 -148Q101 -153 118 -160T152 -167H160Q177 -167 186 -165Q219 -156 247 -127T290 -65T313 -9T321 21L315 17Q309 13 296 6T270 -6Q250 -11 231 -11Q185 -11 150 11T104 82Q103 89 103 113Q103 170 138 262T173 379Q173 380 173 381Q173 390 173 393T169 400T158 404H154Q131 404 112 385T82 344T65 302T57 280Q55 278 41 278H27Q21 284 21 287Z"/>
          </defs>
          <g stroke="currentColor" fill="currentColor" stroke-width="0" transform="scale(1,-1)">
            <g data-mml-node="math">
              <g data-mml-node="mi" data-semantic-type="identifier" data-semantic-role="latinletter" data-semantic-font="italic" data-semantic-annotation="clearspeak:simple" data-semantic-id="0" data-semantic-speech="y">
                <use data-c="1D466" xlink:href="#prefig-blank-grid-quad-3-MJX-3-TEX-I-1D466"/>
              </g>
            </g>
          </g>
        </svg>
      </g>
    </g>
    <g id="prefig-blank-grid-quad-3-label-2" transform="translate(45.0,176.0) translate(-7.5,-0.0)">
      <g id="prefig-blank-grid-quad-3-g-2">
        <svg xmlns:xlink="http://www.w3.org/1999/xlink" style="vertical-align: -0.400px" width="15.080px" height="12.456px" role="img" focusable="false" viewBox="0 -666 833 688" x="0.0" y="0.0">
          <defs>
            <path id="prefig-blank-grid-quad-3-MJX-4-TEX-N-2D" d="M11 179V252H277V179H11Z"/>
            <path id="prefig-blank-grid-quad-3-MJX-4-TEX-N-36" d="M42 313Q42 476 123 571T303 666Q372 666 402 630T432 550Q432 525 418 510T379 495Q356 495 341 509T326 548Q326 592 373 601Q351 623 311 626Q240 626 194 566Q147 500 147 364L148 360Q153 366 156 373Q197 433 263 433H267Q313 433 348 414Q372 400 396 374T435 317Q456 268 456 210V192Q456 169 451 149Q440 90 387 34T253 -22Q225 -22 199 -14T143 16T92 75T56 172T42 313ZM257 397Q227 397 205 380T171 335T154 278T148 216Q148 133 160 97T198 39Q222 21 251 21Q302 21 329 59Q342 77 347 104T352 209Q352 289 347 316T329 361Q302 397 257 397Z"/>
          </defs>
          <g stroke="currentColor" fill="currentColor" stroke-width="0" transform="scale(1,-1)">
            <g data-mml-node="math">
              <g data-mml-node="mtext" data-semantic-type="text" data-semantic-role="unknown" data-semantic-font="normal" data-semantic-annotation="clearspeak:unit" data-semantic-id="0" data-semantic-speech="hyphen 6">
                <use data-c="2D" xlink:href="#prefig-blank-grid-quad-3-MJX-4-TEX-N-2D"/>
                <use data-c="36" xlink:href="#prefig-blank-grid-quad-3-MJX-4-TEX-N-36" transform="translate(333,0)"/>
              </g>
            </g>
          </g>
        </svg>
      </g>
    </g>
    <g id="prefig-blank-grid-quad-3-label-3" transform="translate(105.0,176.0) translate(-7.5,-0.0)">
      <g id="prefig-blank-grid-quad-3-g-3">
        <svg xmlns:xlink="http://www.w3.org/1999/xlink" style="vertical-align: 0.000px" width="15.080px" height="12.256px" role="img" focusable="false" viewBox="0 -677 833 677" x="0.0" y="0.0">
          <defs>
            <path id="prefig-blank-grid-quad-3-MJX-5-TEX-N-2D" d="M11 179V252H277V179H11Z"/>
            <path id="prefig-blank-grid-quad-3-MJX-5-TEX-N-34" d="M462 0Q444 3 333 3Q217 3 199 0H190V46H221Q241 46 248 46T265 48T279 53T286 61Q287 63 287 115V165H28V211L179 442Q332 674 334 675Q336 677 355 677H373L379 671V211H471V165H379V114Q379 73 379 66T385 54Q393 47 442 46H471V0H462ZM293 211V545L74 212L183 211H293Z"/>
          </defs>
          <g stroke="currentColor" fill="currentColor" stroke-width="0" transform="scale(1,-1)">
            <g data-mml-node="math">
              <g data-mml-node="mtext" data-semantic-type="text" data-semantic-role="unknown" data-semantic-font="normal" data-semantic-annotation="clearspeak:unit" data-semantic-id="0" data-semantic-speech="hyphen 4">
                <use data-c="2D" xlink:href="#prefig-blank-grid-quad-3-MJX-5-TEX-N-2D"/>
                <use data-c="34" xlink:href="#prefig-blank-grid-quad-3-MJX-5-TEX-N-34" transform="translate(333,0)"/>
              </g>
            </g>
          </g>
        </svg>
      </g>
    </g>
    <g id="prefig-blank-grid-quad-3-label-4" transform="translate(165.0,176.0) translate(-7.5,-0.0)">
      <g id="prefig-blank-grid-quad-3-g-4">
        <svg xmlns:xlink="http://www.w3.org/1999/xlink" style="vertical-align: 0.000px" width="15.080px" height="12.056px" role="img" focusable="false" viewBox="0 -666 833 666" x="0.0" y="0.0">
          <defs>
            <path id="prefig-blank-grid-quad-3-MJX-6-TEX-N-2D" d="M11 179V252H277V179H11Z"/>
            <path id="prefig-blank-grid-quad-3-MJX-6-TEX-N-32" d="M109 429Q82 429 66 447T50 491Q50 562 103 614T235 666Q326 666 387 610T449 465Q449 422 429 383T381 315T301 241Q265 210 201 149L142 93L218 92Q375 92 385 97Q392 99 409 186V189H449V186Q448 183 436 95T421 3V0H50V19V31Q50 38 56 46T86 81Q115 113 136 137Q145 147 170 174T204 211T233 244T261 278T284 308T305 340T320 369T333 401T340 431T343 464Q343 527 309 573T212 619Q179 619 154 602T119 569T109 550Q109 549 114 549Q132 549 151 535T170 489Q170 464 154 447T109 429Z"/>
          </defs>
          <g stroke="currentColor" fill="currentColor" stroke-width="0" transform="scale(1,-1)">
            <g data-mml-node="math">
              <g data-mml-node="mtext" data-semantic-type="text" data-semantic-role="unknown" data-semantic-font="normal" data-semantic-annotation="clearspeak:unit" data-semantic-id="0" data-semantic-speech="hyphen 2">
                <use data-c="2D" xlink:href="#prefig-blank-grid-quad-3-MJX-6-TEX-N-2D"/>
                <use data-c="32" xlink:href="#prefig-blank-grid-quad-3-MJX-6-TEX-N-32" transform="translate(333,0)"/>
              </g>
            </g>
          </g>
        </svg>
      </g>
    </g>
    <g id="prefig-blank-grid-quad-3-label-5" transform="translate(285.0,176.0) translate(-4.5,-0.0)">
      <g id="prefig-blank-grid-quad-3-g-5">
        <svg xmlns:xlink="http://www.w3.org/1999/xlink" style="vertical-align: 0.000px" width="9.048px" height="12.056px" role="img" focusable="false" viewBox="0 -666 500 666" x="0.0" y="0.0">
          <defs>
            <path id="prefig-blank-grid-quad-3-MJX-7-TEX-N-32" d="M109 429Q82 429 66 447T50 491Q50 562 103 614T235 666Q326 666 387 610T449 465Q449 422 429 383T381 315T301 241Q265 210 201 149L142 93L218 92Q375 92 385 97Q392 99 409 186V189H449V186Q448 183 436 95T421 3V0H50V19V31Q50 38 56 46T86 81Q115 113 136 137Q145 147 170 174T204 211T233 244T261 278T284 308T305 340T320 369T333 401T340 431T343 464Q343 527 309 573T212 619Q179 619 154 602T119 569T109 550Q109 549 114 549Q132 549 151 535T170 489Q170 464 154 447T109 429Z"/>
          </defs>
          <g stroke="currentColor" fill="currentColor" stroke-width="0" transform="scale(1,-1)">
            <g data-mml-node="math">
              <g data-mml-node="mtext" data-semantic-type="text" data-semantic-role="integer" data-semantic-font="normal" data-semantic-annotation="clearspeak:unit" data-semantic-id="0" data-semantic-speech="2">
                <use data-c="32" xlink:href="#prefig-blank-grid-quad-3-MJX-7-TEX-N-32"/>
              </g>
            </g>
          </g>
        </svg>
      </g>
    </g>
    <g id="prefig-blank-grid-quad-3-label-6" transform="translate(214.0,240.0) translate(-15.1,-6.2)">
      <g id="prefig-blank-grid-quad-3-g-6">
        <svg xmlns:xlink="http://www.w3.org/1999/xlink" style="vertical-align: -0.400px" width="15.080px" height="12.456px" role="img" focusable="false" viewBox="0 -666 833 688" x="0.0" y="0.0">
          <defs>
            <path id="prefig-blank-grid-quad-3-MJX-8-TEX-N-2D" d="M11 179V252H277V179H11Z"/>
            <path id="prefig-blank-grid-quad-3-MJX-8-TEX-N-35" d="M164 157Q164 133 148 117T109 101H102Q148 22 224 22Q294 22 326 82Q345 115 345 210Q345 313 318 349Q292 382 260 382H254Q176 382 136 314Q132 307 129 306T114 304Q97 304 95 310Q93 314 93 485V614Q93 664 98 664Q100 666 102 666Q103 666 123 658T178 642T253 634Q324 634 389 662Q397 666 402 666Q410 666 410 648V635Q328 538 205 538Q174 538 149 544L139 546V374Q158 388 169 396T205 412T256 420Q337 420 393 355T449 201Q449 109 385 44T229 -22Q148 -22 99 32T50 154Q50 178 61 192T84 210T107 214Q132 214 148 197T164 157Z"/>
          </defs>
          <g stroke="currentColor" fill="currentColor" stroke-width="0" transform="scale(1,-1)">
            <g data-mml-node="math">
              <g data-mml-node="mtext" data-semantic-type="text" data-semantic-role="unknown" data-semantic-font="normal" data-semantic-annotation="clearspeak:unit" data-semantic-id="0" data-semantic-speech="hyphen 5">
                <use data-c="2D" xlink:href="#prefig-blank-grid-quad-3-MJX-8-TEX-N-2D"/>
                <use data-c="35" xlink:href="#prefig-blank-grid-quad-3-MJX-8-TEX-N-35" transform="translate(333,0)"/>
              </g>
            </g>
          </g>
        </svg>
      </g>
    </g>
    <g id="prefig-blank-grid-quad-3-label-7" transform="translate(214.0,90.0) translate(-9.0,-6.2)">
      <g id="prefig-blank-grid-quad-3-g-7">
        <svg xmlns:xlink="http://www.w3.org/1999/xlink" style="vertical-align: -0.400px" width="9.048px" height="12.456px" role="img" focusable="false" viewBox="0 -666 500 688" x="0.0" y="0.0">
          <defs>
            <path id="prefig-blank-grid-quad-3-MJX-9-TEX-N-35" d="M164 157Q164 133 148 117T109 101H102Q148 22 224 22Q294 22 326 82Q345 115 345 210Q345 313 318 349Q292 382 260 382H254Q176 382 136 314Q132 307 129 306T114 304Q97 304 95 310Q93 314 93 485V614Q93 664 98 664Q100 666 102 666Q103 666 123 658T178 642T253 634Q324 634 389 662Q397 666 402 666Q410 666 410 648V635Q328 538 205 538Q174 538 149 544L139 546V374Q158 388 169 396T205 412T256 420Q337 420 393 355T449 201Q449 109 385 44T229 -22Q148 -22 99 32T50 154Q50 178 61 192T84 210T107 214Q132 214 148 197T164 157Z"/>
          </defs>
          <g stroke="currentColor" fill="currentColor" stroke-width="0" transform="scale(1,-1)">
            <g data-mml-node="math">
              <g data-mml-node="mtext" data-semantic-type="text" data-semantic-role="integer" data-semantic-font="normal" data-semantic-annotation="clearspeak:unit" data-semantic-id="0" data-semantic-speech="5">
                <use data-c="35" xlink:href="#prefig-blank-grid-quad-3-MJX-9-TEX-N-35"/>
              </g>
            </g>
          </g>
        </svg>
      </g>
    </g>
  </g>
</svg>
